name Walk6.mot
datacolumns 19
datarows 22
range 1.65500000 1.76000000
endheader

                time	   L_ground_force_vx	   L_ground_force_vy	   L_ground_force_vz	   L_ground_force_px	   L_ground_force_py	   L_ground_force_pz	   R_ground_force_vx	   R_ground_force_vy	   R_ground_force_vz	   R_ground_force_px	   R_ground_force_py	   R_ground_force_pz	   L_ground_torque_x	   L_ground_torque_y	   L_ground_torque_z	   R_ground_torque_x	   R_ground_torque_y	   R_ground_torque_z	
          1.65500000	          0.00000000	          0.00000000	         -0.00000000	         -0.00000000	          0.00000000	         -0.00000000	         21.18337395	        680.86388958	         -9.18147501	         -0.10950871	          0.00000000	          0.32658134	          0.00000000	         -0.00000000	          0.00000000	          0.00000000	          0.94530177	          0.00000000	
          1.66000000	         -0.00000000	         -0.00000000	          0.00000000	         -0.00000000	          0.00000000	         -0.00000000	         24.20111388	        692.29185737	         -9.37534498	         -0.10821670	          0.00000000	          0.32659213	          0.00000000	          0.00000000	          0.00000000	          0.00000000	          0.86410353	          0.00000000	
          1.66500000	         -0.00000000	         -0.00000000	          0.00000000	         -0.00000000	          0.00000000	         -0.00000000	         27.28765677	        703.85939557	        -10.18973166	         -0.10722039	          0.00000000	          0.32663671	          0.00000000	          0.00000000	          0.00000000	          0.00000000	          0.66164344	          0.00000000	
          1.67000000	         -0.00000000	          0.00000000	          0.00000000	          0.00000000	          0.00000000	          0.00000000	         30.77694726	        714.95915422	        -11.49548928	         -0.10630038	          0.00000000	          0.32671737	          0.00000000	          0.00000000	          0.00000000	          0.00000000	          0.36137551	          0.00000000	
          1.67500000	          0.00000000	          0.00000000	         -0.00000000	          0.00000000	          0.00000000	          0.00000000	         35.26776544	        725.22566864	        -12.36344663	         -0.10540872	          0.00000000	          0.32674421	          0.00000000	         -0.00000000	          0.00000000	          0.00000000	          0.11496170	          0.00000000	
          1.68000000	          0.00000000	          0.00000000	         -0.00000000	         -0.00000000	          0.00000000	         -0.00000000	         39.91616811	        734.82018099	        -12.53854020	         -0.10451455	          0.00000000	          0.32671290	          0.00000000	         -0.00000000	          0.00000000	          0.00000000	          0.02711968	          0.00000000	
          1.68500000	         -0.00000000	         -0.00000001	          0.00000000	         -0.00000000	          0.00000000	         -0.00000000	         43.97643547	        744.10271269	        -12.45265994	         -0.10355569	          0.00000000	          0.32664983	          0.00000000	         -0.00000000	          0.00000000	          0.00000000	          0.08881672	          0.00000000	
          1.69000000	         -0.00000000	         -0.00000006	          0.00000000	         -0.00000000	          0.00000000	         -0.00000000	         48.02329537	        752.97188755	        -12.38873720	         -0.10265189	          0.00000000	          0.32661638	          0.00000000	          0.00000000	          0.00000000	          0.00000000	          0.14270839	          0.00000000	
          1.69500000	         -0.00000000	         -0.00000009	          0.00000001	          0.00000000	          0.00000000	          0.00000000	         52.85875913	        760.70130335	        -12.40523579	         -0.10175893	          0.00000000	          0.32680284	          0.00000000	          0.00000000	          0.00000000	          0.00000000	          0.09070263	          0.00000000	
          1.70000000	          0.00000000	          0.00000034	         -0.00000002	          0.00000000	          0.00000000	          0.00000000	         58.34402959	        767.59288580	        -12.73042642	         -0.10094047	          0.00000000	          0.32694710	          0.00000000	         -0.00000000	          0.00000000	          0.00000000	         -0.03364330	          0.00000000	
          1.70500000	          0.00000004	          0.00000174	         -0.00000011	          0.00000000	          0.00000000	          0.00000000	         63.87230028	        774.24445707	        -13.20265435	         -0.10036407	          0.00000000	          0.32674600	          0.00000000	         -0.00000000	          0.00000000	          0.00000000	         -0.06962022	          0.00000000	
          1.71000000	          0.00000007	          0.00000135	         -0.00000013	         -0.00000001	          0.00000000	         -0.00000001	         69.35904574	        780.48887872	        -13.41930999	         -0.09980446	          0.00000000	          0.32646301	          0.00000000	         -0.00000000	          0.00000000	          0.00000000	          0.01413114	          0.00000000	
          1.71500000	         -0.00000022	         -0.00001249	          0.00000070	         -0.00000005	          0.00000000	         -0.00000003	         74.97613345	        785.93372621	        -13.28311916	         -0.09926667	          0.00000000	          0.32641412	          0.00000000	          0.00000001	          0.00000000	          0.00000000	          0.07156519	          0.00000000	
          1.72000000	         -0.00000119	         -0.00004488	          0.00000305	         -0.00000003	          0.00000000	         -0.00000002	         80.80544526	        790.21527173	        -12.83893729	         -0.09876722	          0.00000000	          0.32647325	          0.00000000	          0.00000006	          0.00000000	          0.00000000	          0.13114531	          0.00000000	
          1.72500000	         -0.00000109	         -0.00000139	          0.00000148	          0.00000036	          0.00000000	          0.00000022	         86.80183911	        793.06069033	        -12.19783521	         -0.09820562	          0.00000000	          0.32647944	          0.00000000	          0.00000009	          0.00000000	          0.00000000	          0.18753509	          0.00000000	
          1.73000000	          0.00000816	          0.00040999	         -0.00002426	          0.00000120	          0.00000000	          0.00000073	         92.57409182	        794.53014540	        -11.35607292	         -0.09772400	          0.00000000	          0.32648460	          0.00000000	         -0.00000031	          0.00000000	          0.00000000	          0.17743932	          0.00000000	
          1.73500000	          0.00003118	          0.00107673	         -0.00007656	         -0.00000019	          0.00000000	         -0.00000014	         97.83310551	        794.95568515	        -10.29402780	         -0.09732667	          0.00000000	          0.32641128	          0.00000000	         -0.00000160	          0.00000000	          0.00000000	          0.17595118	          0.00000000	
          1.74000000	          0.00000575	         -0.00098416	          0.00002490	         -0.00001151	          0.00000000	         -0.00000711	        102.59181069	        794.48885651	         -9.13622583	         -0.09697689	          0.00000000	          0.32613071	          0.00000000	         -0.00000131	          0.00000000	          0.00000000	          0.22279956	          0.00000000	
          1.74500000	         -0.00027240	         -0.01247651	          0.00077015	         -0.00002815	          0.00000000	         -0.00001716	        106.93880584	        793.02700446	         -7.96574486	         -0.09665188	          0.00000000	          0.32573764	          0.00000000	          0.00001130	          0.00000000	          0.00000000	          0.30694670	          0.00000000	
          1.75000000	         -0.00075982	         -0.02330691	          0.00176902	          0.00003301	          0.00000000	          0.00002094	        111.15540230	        790.44006508	         -6.91635456	         -0.09617178	          0.00000000	          0.32544020	          0.00000000	          0.00004144	          0.00000000	          0.00000000	          0.39338002	          0.00000000	
          1.75500000	          0.00053858	          0.05449618	         -0.00250671	          0.00034507	          0.00000000	          0.00021251	        115.31627240	        786.72208165	         -6.18971684	         -0.09559329	          0.00000000	          0.32539052	          0.00000000	          0.00000339	          0.00000000	          0.00000000	          0.34975655	          0.00000000	
          1.76000000	          0.00839977	          0.35620212	         -0.02280734	          0.00059122	          0.00000000	          0.00035852	        119.24968964	        781.95332681	         -5.88776730	         -0.09512009	          0.00000000	          0.32550106	          0.00000000	         -0.00037311	          0.00000000	          0.00000000	          0.20131492	          0.00000000	
